<svg clip-rule="evenodd" fill-rule="evenodd" height="248" stroke-linejoin="round" stroke-miterlimit="2" viewBox="0 0 2246 1034" width="539" xmlns="http://www.w3.org/2000/svg"><path d="m531.58 201.034h285.164v26.854h-285.164z" fill="#246141" transform="matrix(-3.31792765434 0 0 3.31792765434 4004.70737043 -12.9640103712)"/><path d="m-102.739-103.501h205.478l-.001 1.524h-205.476z" fill="#08a093" transform="matrix(0 3.31792765434 3.31792765434 0 1561.67208267 422.95450503)"/><g fill-rule="nonzero"><path d="m-2.26-2.26c-1.316 0-2.383 1.012-2.383 2.261 0 1.247 1.067 2.259 2.383 2.259s2.384-1.012 2.384-2.259c0-1.249-1.068-2.261-2.384-2.261" fill="#5fb5e6" transform="matrix(0 -3.31792765434 -3.31792765434 0 402.429905277 512.56707672)"/><g fill="#246141" opacity=".85" transform="matrix(3.31792765434 0 0 3.31792765434 -468.92954181 -381.512388543)"><path d="m0-4.173c-1.779 1.48-3.729 2.775-5.591 4.173 1-.618 2.025-1.182 3.137-1.693 1.323-.788 1.787-1.492 2.454-2.48" transform="translate(396.183 389.816)"/><path d="m0-1.347c-.356.225-.713.451-1.045.66-.288.242-.566.477-.815.687.617-.447 1.243-.9 1.86-1.347" transform="translate(385.284 394.82)"/><path d="m0 3.144c1.897-1.009 3.732-1.958 5.333-3.144-1.505.901-3.342 1.79-5.333 3.144" transform="translate(375.122 396.983)"/><path d="m.07-.493c-.781.007-1.191.127-.048.62.014.005.027.01.048.017-1.15-.389-2.29-.776-3.479-1.18 1.285.272 2.454.45 3.479.543" transform="matrix(.95448 -.298275 -.298275 -.95448 383.4 394.978)"/><path d="m0 .797c.72-.218 1.797-.683 2.195-.797-.662.2-1.4.466-2.195.797" transform="translate(383.613 394.63)"/><path d="m0 .336c-.995.815-1.459-.524-3.48.963-2.448 1.646-4.723 3.175-6.956 4.677-2.327 1.347-4.648 2.633-7.147 3.821-.535.345-1.204.618-1.935.853-.752.192-1.569.341-2.383.49-1.629.297-3.243.588-4.346 1.199-2.616 1.399-7.458 3.434-10.557 5.007-.776.386-1.445.736-1.944 1.017-.51.247-.847.441-.949.557-.212.208.554.232 2.68-.504 3.2-1.094 6.136-2.044 8.861-3.073 2.678-1.145 5.201-2.223 7.685-3.285 1.253-.5 2.43-1.144 3.628-1.751 1.195-.612 2.394-1.225 3.611-1.848 1.209-.636 2.467-1.22 3.7-1.927 1.223-.724 2.478-1.466 3.778-2.233 4.202-2.536 7.99-5.521 11.846-8.389 1.905-1.47 3.693-3.105 5.56-4.655.927-.783 1.857-1.569 2.793-2.361.888-.846 1.783-1.696 2.683-2.554 1.034-.928 2.061-1.792 3.087-2.627 1.029-.832 2.062-1.628 3.01-2.529-1.265 1.145-2.707 2.12-4.119 3.209-1.419 1.074-2.885 2.183-4.427 3.35-2.095 1.445-4.152 3.348-6.413 5.64-.573.566-1.161 1.149-1.766 1.749-.645.552-1.307 1.119-1.988 1.703-1.377 1.153-2.869 2.336-4.512 3.501" transform="translate(383.75 401.155)"/><path d="m0-15.508c-.482 1.13-1.457 3.413-1.457 3.413-1.976 1.976-3.694 4.17-5.272 6.513-.759 1.193-1.613 2.327-2.434 3.494-.809 1.179-1.621 2.362-2.432 3.545.704-.507 1.422-1.025 2.148-1.547 1.976-2.641 1.879-3.176-.176-1.086 2.489-2.292 4.486-4.873 6.425-7.465.941-1.315 1.97-2.569 2.764-3.974.83-1.384 1.639-2.782 2.436-4.196-.548.148-.901-.154-2.002 1.303" transform="translate(430.492 363.025)"/><path d="m-.915-3.449c.045 1.273.09 2.552.135 3.804-.043-.026-.089-.085-.135-.129-.016-1.281-.03-2.56-.045-3.811z" transform="matrix(-.891854 -.452323 -.452323 .891854 431.959 345.544)"/><path d="m0 283.934c-15.431 5.345-30.799 7.834-45.779 8.044-1.145.324-1.953.685-3.507.563-1.172-.283-2.35-.474-3.516-.609-2.189-.081-4.374-.124-6.532-.364-.759-.02-1.528-.04-2.308-.061-.01.001-.046.002-.064.003-1.238.072-.897.324-.154.596.837.219 1.603.459 2.258.703-.418-.155-1.533-.437-2.258-.703-1.016-.28-2.156-.456-3.48-.719-1.991-.161-4.076-.373-6.203-.729 2.406.132 4.451.392 6.203.729 1.26.116 2.483.079 3.698.12.351-.016.704-.033 1.071-.051l-3.724-.331-3.695-.51-3.687-.522c-1.223-.204-2.437-.464-3.656-.693-1.132-.158-2.214-.308-3.095-.431-1.791-.216-3.551-.593-5.136-.952-1.577-.394-2.976-.797-3.943-1.474-.838-.254-1.693-.512-2.547-.771.147.086.307.18.457.267-.368-.151-.675-.288-.923-.406l-2.684-.809c-.892-.28-1.766-.62-2.651-.928-1.76-.646-3.547-1.226-5.292-1.93-2.347-.653-4.841-1.192-7.234-2.012 0 0-1.349-1.146-2.012-1.709-1.076-.096-2.524-.454-4.124-1.087 1.647 1.268 3.155 2.447 4.621 3.448.509.431 1.128.71 1.8.924.683.189 1.425.301 2.168.442 1.488.28 2.982.649 4.143 1.847-1.161-1.198-2.655-1.567-4.143-1.847-.743-.141-1.485-.253-2.168-.442-.672-.214-1.291-.493-1.8-.924-1.466-1.001-2.974-2.18-4.621-3.448-1.645-.696-3.472-1.632-5.254-2.681-1.777-1.056-3.433-2.365-4.867-3.577 2.163.854 3.946 1.982 5.633 2.992 1.67 1.038 3.134 2.162 4.488 3.266 1.6.633 3.048.991 4.124 1.087.663.563 2.012 1.709 2.012 1.709 2.393.82 4.887 1.359 7.234 2.012-6.838-2.676-13.507-5.937-20.078-9.672-21.014-12.241-38.294-28.761-51.164-48.381-6.366-9.849-11.73-20.434-15.661-31.745-3.887-11.315-6.577-23.275-7.564-35.732-2.101-27.017 3.433-53.309 14.954-75.687.66-1.423 1.474-2.765 2.211-4.138.77-1.356 1.456-2.752 2.278-4.068 1.628-2.64 3.157-5.316 4.92-7.832 3.334-5.152 7.099-9.941 10.94-14.6 2.025-2.243 3.926-4.585 6.067-6.699l3.137-3.233 3.273-3.083 1.635-1.54 1.706-1.459 3.407-2.919 3.54-2.752c1.174-.924 2.356-1.838 3.597-2.671 9.73-6.929 20.321-12.715 31.703-16.781 5.646-2.145 11.547-3.658 17.503-4.982 1.504-.265 3.012-.53 4.524-.796l2.266-.39 2.293-.268c1.527-.172 3.058-.346 4.595-.52 1.542-.087 3.088-.176 4.64-.264 4.749-.313 10.509-.442 16.752-.429 6.247.072 12.973.525 19.618 1.424 6.647.89 13.209 2.224 19.146 3.829 5.942 1.596 11.252 3.46 15.483 5.169 5.873 1.793 9.667 2.765 12.109 2.988 2.442.224 3.554-.348 3.892-1.251.694-1.797-1.785-4.963-2.258-5.409-5.995-5.929-12.587-9.417-21.466-12.546-4.446-1.582-9.503-3.026-15.504-4.489-6.008-1.443-12.964-2.931-21.352-4.202 5.716.821 7.447 1.513 6.572 1.764-.437.117-1.531.165-3.122.168-1.587-.032-3.673-.076-6.105-.126-4.859-.118-11.091-.188-17.478-.053-1.6.023-3.209.046-4.807.069-1.599.066-3.187.13-4.745.194-3.137.031-6.133.26-8.901.277-7.993.124-16.805 1.617-25.767 4.512-8.971 2.873-18.044 7.194-26.719 12.551-8.681 5.361-16.939 11.791-24.496 18.818-7.569 7.025-14.437 14.638-20.637 22.329-6.201 7.702-11.635 16.785-16.75 27.441-3.525 6.817-6.317 13.924-8.713 21.111-2.321 7.219-4 14.587-5.248 22.002-2.229 14.869-2.466 29.947-.341 44.834 4.086 29.782 16.846 58.687 37.699 83.226 5.571 6.47 11.534 11.897 17.653 16.497 6.092 4.635 12.248 8.577 18.454 12.037 8.824 5.398 18.477 10.935 26.374 14.012 12.38 4.857 23.711 7.176 34.549 8.131-3.007-.428-5.812-.861-8.535-1.296-2.699-.557-5.341-1.03-7.996-1.64-5.291-1.295-10.752-2.741-17.126-5.152-4.248-1.628-2.587-1.475.812-.706.846.201 1.805.428 2.813.667 1.014.212 2.079.435 3.128.655 2.097.435 4.09.968 5.559 1.233 2.522.361 5.926 3.095 8.53 3.28 2.704.634 5.333 1.086 8.048 1.299 1.349.125 2.713.251 4.109.379 1.399.074 2.831.148 4.315.226 2.554-.004 2.099 1.411 3.383 1.41 2.029.109 3.954.05 5.766-.021.907-.042 1.787-.085 2.64-.151.854-.1 1.683-.196 2.489-.291 1.609-.189 3.119-.358 4.546-.447 1.427-.078 2.771-.234 4.054-.157 3.892.048 7.434.303 10.867.063 2.171-.144 4.33-.304 6.61-.6 1.403-.265 2.833-.711 4.271-1.063-1.225-.241-1.72-.709-2.183-1.187 2.083-.282 5.067-.474 7.164-.759-2.097.285-5.081.477-7.164.759.463.478.958.946 2.183 1.187 1.285-.33 2.595-.666 3.924-1.007 1.325-.354 2.683-.629 4.014-1.103 2.668-.855 5.396-1.729 8.147-2.61 2.71-.985 5.399-2.091 8.086-3.116l2.008-.778 1.948-.905c1.293-.598 2.578-1.194 3.851-1.784-.057-.02-.129-.044-.188-.065-3.016 1.266-5.997 2.534-9.173 3.32-3.152.844-6.324 1.73-9.741 2.01 2.917-.386 2.686.089-.546.973-.888-.033-1.78-.066-2.657-.098 1.384-.438 2.767-.877 4.144-1.313l2.068-.612 2.031-.692c2.705-.899 5.435-1.568 8.216-1.953 0 0 2.193-1.22 3.278-1.824 1.778-.486 1.873-.031 2.38.189 1.169-.504 2.354-1.015 3.543-1.526-1.412.168-4.189.82-6.598 1.423-1.199.31-2.316.597-3.132.808-.829.17-1.353.277-1.353.277" transform="translate(352.077 128.057)"/><path d="m0 1.476c.875.086 1.958.109 3.108.166-2.083-.145-4.145-.489-6.213-.778l-3.103-.444c-1.032-.167-2.055-.392-3.084-.586 2.053 1.159 5.686 1.38 9.292 1.642" transform="translate(286.594 417.908)"/></g><path d="m0-39.056c-21.006 16.402-26.528 11.278-49.851 23.019-17.141 8.63-21.216 11.075-42.53 1.536-22.896-10.248-41.786 3.587-52.848 14.501-.841-1.335-2.809-3.185-3.872-5.035 21.318-24.749 46.359-23.915 69.527-16.212 21.433 7.126 21.267-8.755 43.613-8.314 18.725.37 28.723-6.136 35.961-9.495" fill="#a3d55e" transform="matrix(3.31792765434 0 0 3.31792765434 898.97571918 890.57571246)"/><path d="m0 .07c-.042-.057-.051-.07 0 0" fill="#91725f" transform="matrix(3.31792765434 0 0 3.31792765434 600.20464683 670.71720324)"/><path d="m0-40.093c-11.788 14.255-38.346 38.105-75.766 39.474-16.925.619-33.382-6.552-44.863-17.259 6.587-6.507 22.621-16.542 36.98-12.955 18.2 4.547 22.566 15.373 42.418 8.164 7.233-2.627 23.585-14.951 41.231-17.424" fill="#246141" transform="matrix(3.31792765434 0 0 3.31792765434 825.33816027 958.80493371)"/><path d="m0 20.471 22.986-15.846 21.139 14.083 11.694-7.79c-.754-.941-1.544-1.955-2.379-3.066l-9.315 6.206-21.103-14.058-23.172 15.974-12.985-10.214c-.474 1.092-.914 2.207-1.325 3.336z" fill="#00a19c" transform="matrix(3.31792765434 0 0 3.31792765434 427.42534194 651.01718748)"/><path d="m0 20.471 22.986-15.845 11.172 7.443c-1.655-2.709-3.319-5.448-4.736-7.806l-6.4-4.263-23.172 15.974-5.408-4.254c-.711.967-1.382 1.915-1.998 2.808z" fill="#00a19c" transform="matrix(3.31792765434 0 0 3.31792765434 427.42534194 589.55463831)"/><path d="m0-9.21-9.018 6.008c1.514.424 3.042.884 4.609 1.405.062.021.118.035.179.055l4.252-2.832 6.722 4.574c1.93-.119 3.639-.502 5.23-1.061z" fill="#00a19c" transform="matrix(3.31792765434 0 0 3.31792765434 643.87134843 804.48397692)"/><path d="m0 20.471 22.986-15.845 21.139 14.083 21.133-14.078 20.676 14.069 15.032-10.055c-2.498-.74-4.179-.984-6.655 0-.186.075-.377.138-.572.189l-7.825 5.234-15.235-10.368c-.92.039-1.908-.066-2.968-.419 0 0-1.197-.14-3.873-2.355l-19.713 13.133-21.103-14.059-23.172 15.974-17.496-13.763c-.257 1.351-.467 2.652-.631 3.882z" fill="#00a19c" transform="matrix(3.31792765434 0 0 3.31792765434 427.42534194 712.47973665)"/><path d="m0 20.471 22.986-15.845 21.139 14.083 16.821-11.206c-.805-.819-1.69-1.775-2.654-2.882l-14.167 9.437-21.103-14.058-23.172 15.974-15.598-12.27c-.362 1.209-.691 2.413-.985 3.603z" fill="#00a19c" transform="matrix(3.31792765434 0 0 3.31792765434 427.42534194 681.7505454)"/><path d="m0-11.22 12.59 8.389c.744-.069 1.474-.125 2.187-.169 1.564-.057 3.094-.028 4.612.048l-19.352-12.893-23.173 15.974-18.538-14.583c-.028.683-.041 1.333-.026 1.906 0 0 .008.944.109 2.537l18.605 14.636z" fill="#00a19c" transform="matrix(3.31792765434 0 0 3.31792765434 503.69206962 795.78396996)"/><path d="m0 20.472 22.986-15.845 21.139 14.083 6.939-4.623c-.394-.453-.792-.885-1.169-1.239-1.697-1.59-3.033.213-4.878 2.609-.636.797-1.786 2.587-2.8.467 0 0-1.351-2.185-3.279-5.321l-15.916-10.603-23.172 15.974-9.533-7.499c-.24.379-.458.729-.639 1.028-.386.638-.757 1.298-1.116 1.972z" fill="#00a19c" transform="matrix(3.31792765434 0 0 3.31792765434 427.42534194 620.28382956)"/><path d="m-5.851-4.157c-.391 5.497 1.318 12.209.338 13.292-.106.108-.221.22-.338.335l-2.039-12.385z" fill="#00a19c" transform="matrix(1.39611361689 -3.00989824125 -3.00989824125 -1.39611361689 714.78807183 715.97557278)"/><path d="m0 19.177 22.986-15.845 1.834 1.222c-1.652-2.361-2.707-4.129-3.674-4.554l-5.375 3.705c-.848.885-1.821 1.902-2.971 3.043.017-.009.033-.012.05-.021-1.022 1.01-2.111 2.218-3.21 3.438-1.446 1.479-.892.801-2.43 2.287-1.866 1.803-2.346 1.81-4.018.214-.064-.062-.12-.109-.181-.165l-3.161 2.179-.852-.67c-.745.833-1.49 1.719-2.222 2.631z" fill="#00a19c" transform="matrix(3.31792765434 0 0 3.31792765434 427.42534194 563.11711716)"/><path d="m0 1.519 1.282.88 4.153-3.279c-1.956.814-3.757 1.636-5.435 2.399" fill="#00a19c" transform="matrix(3.31792765434 0 0 3.31792765434 845.77567662 735.60892182)"/><path d="m.337-2.57h5.174c.939 1.249 1.827 2.519 2.674 3.797h-4.871c-.974-1.475-1.939-2.758-2.977-3.797" fill="#00a19c" transform="matrix(2.73506468805 1.87831400265 1.87831400265 -2.73506468805 820.67148987 743.7922617)"/><path d="m0-6.257-9.42 7.44c6.986-3.441 12.671-7.078 16-8.623-2.339.287-4.525.694-6.58 1.183" fill="#00a19c" transform="matrix(3.31792765434 0 0 3.31792765434 899.17571934 741.74226006)"/><path d="m0-9.585-14.33 9.585c2.743-1.024 5.947-1.785 9.929-1.996l5.665-3.789 4.71 3.234c1.745-.262 3.474-.617 5.179-1.049l-7.321-5.027c-1.453-.318-2.713-.643-3.832-.958" fill="#00a19c" transform="matrix(3.31792765434 0 0 3.31792765434 778.1672892 777.75478887)"/><path d="m0 10.724c1.886.203 3.762.502 5.645.89l14.105-9.396 16.054 10.924c1.229-.657 2.449-1.371 3.72-2.087l-19.796-13.473z" fill="#00a19c" transform="matrix(3.31792765434 0 0 3.31792765434 578.4171294 751.21726764)"/><path d="m0 19.964c5.775-4.996 11.941-8.959 17.288-11.46.63-.295 1.264-.561 1.899-.815l4.443-3.063 1.63 1.086c1.315-.358 2.628-.689 3.93-1.024.411-.071.815-.13 1.222-.194l-6.745-4.494-23.173 15.974-17.938-14.111c.199 1.537.464 3.229.811 5.017z" fill="#00a19c" transform="matrix(3.31792765434 0 0 3.31792765434 425.28784023 773.94228582)"/><path d="m0 .208-.472-.372c.101.166.207.341.326.536.048-.056.098-.109.146-.164" fill="#00a19c" transform="matrix(3.31792765434 0 0 3.31792765434 398.939485818 865.69652589)"/><path d="m-4.648-.971c1.152.141 2.302.253 3.451.343l-3.451 15.276c-.819-1.933-1.563-3.958-2.165-6.034z" fill="#00a19c" transform="matrix(2.57556456045 -2.09167667334 -2.09167667334 -2.57556456045 417.49616733 844.74234246)"/><path d="m0-3.806c-29.604-14.343-51.642 5.803-40.685 18.149-2.858-19.266 22.794-24.585 40.685-18.149" fill="#fece00" transform="matrix(3.31792765434 0 0 3.31792765434 456.02119815 222.55017804)"/><path d="m0-19.699c36.8-12.457 78.101 4.778 72.111 32.156-8.872-27.378-40.899-36.521-72.111-32.156" fill="#fece00" transform="matrix(3.31792765434 0 0 3.31792765434 453.0003624 170.488886391)"/><path d="m0-5.347c1.175-1.878 3.566-2.5 5.341-1.39 1.773 1.109 2.262 3.533 1.086 5.411-1.175 1.879-3.568 2.499-5.341 1.39-1.775-1.111-2.261-3.533-1.086-5.411m-5.726 6.622c2.45 4.96 8.784 7.965 14.04 5.561 2.777-1.265 4.395-3.747 5.575-5.374 3.218-4.436 7.795-7.137 13.487-6.861 9.106.441 16.297 6.18 19.782 23.008 2.2-11.472-1.159-23.382-9.163-29.831-10.238-8.247-27.386-10.734-39.593-1.875-4.362 3.167-7.059 9.435-4.128 15.372" fill="#fece00" transform="matrix(3.31792765434 0 0 3.31792765434 354.011533209 277.108138353)"/><path d="m0 41.383c-10.83-40.503-27.289-31.541-27.289-31.541 8.813-9.842 23.874 1.873 27.289 31.541" fill="#fece00" transform="matrix(3.31792765434 0 0 3.31792765434 512.82124359 250.008950007)"/><path d="m0 25.593c18.75-22.739 30.614-14.065 30.614-14.065-1.324-7.954-16.323-11.528-30.614 14.065" fill="#fece00" transform="matrix(3.31792765434 0 0 3.31792765434 201.135577575 220.261009542)"/><path d="m-4.767-4.767c-2.633 0-4.767 2.134-4.767 4.767s2.134 4.767 4.767 4.767 4.767-2.134 4.767-4.767-2.134-4.767-4.767-4.767" fill="#fece00" transform="matrix(0 -3.31792765434 -3.31792765434 0 279.564390318 261.59187594)"/><path d="m-4.949-4.949c-2.733 0-4.949 2.216-4.949 4.949 0 2.734 2.216 4.949 4.949 4.949s4.949-2.215 4.949-4.949c0-2.733-2.216-4.949-4.949-4.949" fill="#fece00" transform="matrix(0 -3.31792765434 -3.31792765434 0 439.60035168 286.463979171)"/><path d="m0 25.748.006.015c1.821-1.657 3.633-3.203 5.438-4.642-.076-4.245 2.092-8.086 6.761-11.471 6.154-4.463 13.605-5.347 21.54-4.486 1.105.119 2.19.366 3.243.707 3.07-.58 6.15-.918 9.247-1.045-3.332-2.385-7.553-3.457-12.041-4.155-1.624-.253-3.291-.686-4.901-.61-4.129.196-8.124.712-11.877 1.699-6.194 4.125-11.955 8.949-17.152 14.396-1.038 3.116-1.272 6.325-.264 9.592" fill="#fece00" transform="matrix(3.31792765434 0 0 3.31792765434 222.781844892 170.258052873)"/><path d="m0 4.818c2.994-1.879 5.975-3.478 8.952-4.818-1.36.284-2.695.658-4.004 1.136-2.281.833-3.825 2.127-4.948 3.682" fill="#fece00" transform="matrix(3.31792765434 0 0 3.31792765434 268.23771459 204.81683052)"/><path d="m0-8.316c2.586 2.097 4.755 4.342 6.638 6.709 3.41 2.836 8.002 4.153 13.04 5.762 5.53 1.765 11.542 3.119 17.509 3.663 11.889 1.083 22.748-.676 32.266-5.584-1.33-1.136-2.717-2.232-4.151-3.292-.727.325-1.482.628-2.267.908-5.735 2.042-11.61 3.722-17.972 4.127-6.857.437-13.142-1.536-19.553-2.915-4.869-1.047-9.274-2.909-12.687-5.491-4.724-3.574-7.725-8.036-9.382-12.788-5.326.518-10.577 1.478-15.708 2.859 4.566 1.287 8.76 3.197 12.267 6.042" fill="#fece00" transform="matrix(3.31792765434 0 0 3.31792765434 418.41283473 179.664310398)"/><path d="m0-15.911c-2.801 1.27-5.822 2.344-8.765 3.427-8.589 3.16-17.667 4.41-27.282 3.324-6.891-.778-13.605-2.053-19.89-4.21-1.956-.672-3.841-1.49-5.659-2.387.125.23.251.46.374.692 7.158 3.463 12.681 8.8 16.266 15.065 2.02-1.03 4.124-1.972 6.321-2.726 6.285-2.157 12.999-3.433 19.89-4.211 9.615-1.085 18.693.165 27.282 3.324.674.248 1.353.497 2.032.746-2.905-4.647-6.441-9.031-10.569-13.044" fill="#fece00" transform="matrix(3.31792765434 0 0 3.31792765434 660.46302837 250.472283711)"/><path d="m0 50.088c3.397-.937 6.544-2.107 9.42-3.516 1.912-2.771 3.407-5.87 4.476-9.192-1.365 1.136-2.903 2.17-4.469 3.147-10.572 6.6-22.717 7.239-35.526 4.537-3.005-.634-5.758-1.702-7.822-3.611-1.454-1.344-3.38-2.407-4.906-3.715-3.692-3.167-5.688-6.861-7.034-10.939-1.088-3.295.441-6.088 1.608-8.927 3.929-9.563 15.193-15.072 28.776-14.24 5.182.318 10.432.866 14.688 3.285 2.043 1.161 3.676 2.785 5.187 4.358 1.595 1.66 3.45 3.394 4.097 5.296 2.041 5.996.255 11.309-5.958 15.813-6.155 4.463-13.605 5.347-21.54 4.486-8.43-.914-15.896-8.868-14.005-14.849 1.862-5.889 8.022-9.436 16.559-9.682 6.045-.174 10.282 1.812 12.359 5.993.992 1.995 1.014 3.945-1.006 5.845-2.759 2.595-5.977 3.983-10.576 3.515-2.245-.228-3.298-1.329-4.134-2.582-.634-.948.527-2.211 2.012-2.348 1.13-.104 2.283-.132 3.423-.111 1.577.027 2.882-.188 3.432-1.457.574-1.324-.196-2.336-1.508-3.088-2.926-1.678-8.185-1.087-10.959.744-2.808 1.855-4.507 3.708-3.744 6.673.834 3.239 5.897 6.54 11.504 6.73 4.159.14 8.044-.421 11.739-1.771 2.97-1.084 4.697-2.945 5.861-5.153 2.763-5.241.741-11.456-5.45-14.664-5.307-2.75-11.522-3.348-17.949-2.64-4.955.546-8.803 2.228-12.215 5.04-5.096 4.2-7.171 8.888-6.138 14.345.708 3.741 4.139 6.385 7.359 9.089 3.456 2.903 8.068 4.099 12.986 4.864 1.625.252 3.291.685 4.901.609 8.052-.381 15.602-1.95 21.813-5.933 1.676-1.074 3.162-2.481 4.121-3.951 3.261-4.994 5.053-10.317 3.36-15.802-1.473-4.769-4.959-8.751-10.406-11.866-12.134-6.941-24.976-6.546-38.347-2.493-4.452 1.349-7.868 3.583-10.609 6.379.295 3.558.062 7.168-.759 10.708-1.885 8.123-1.322 15.09.772 20.845.231.239.462.478.699.716 4.342 4.367 9.946 7.423 16.531 9.148 8.892 2.329 18.242 2.886 27.377.365" fill="#fece00" transform="matrix(3.31792765434 0 0 3.31792765434 674.76720648 272.374384566)"/><path d="m0-4.861c6.362.405 12.237 2.085 17.972 4.127 3.915 1.394 7.073 3.372 9.763 5.661-.902-2.718-1.992-5.394-3.274-8.008-9.536-4.936-20.419-6.707-32.337-5.621-5.967.544-11.979 1.898-17.509 3.663-2.489.795-4.85 1.757-7.02 2.91.64 1.523 1.183 3.08 1.607 4.668 3.174-2.062 7.034-3.58 11.245-4.485 6.411-1.38 12.696-3.352 19.553-2.915" fill="#fece00" transform="matrix(3.31792765434 0 0 3.31792765434 625.3338336 270.807299979)"/><path d="m-2.149-12.307c.298-.145.583-.302.86-.464.07 4.911-.196 9.868-.86 14.846-.661-4.802-1.442-9.311-2.327-13.577.821-.204 1.619-.459 2.327-.805" fill="#fece00" transform="matrix(-2.90093148741 -1.61034712161 -1.61034712161 2.90093148741 151.062204183 323.55442551)"/><path d="m-3.726-2.131c1.808 1.242 3.733 2.077 5.746 2.488-1.872 1.238-3.782 2.427-5.746 3.544-1.526-.615-2.957-1.448-4.304-2.465 1.496-1.19 2.923-2.379 4.304-3.567" fill="#fece00" transform="matrix(.23928519143 -3.30928598076 -3.30928598076 -.23928519143 201.229744317 257.666456133)"/><path d="m0-2.753c-8.187 1.284-16.256 1.613-24.271.39-3.88-.592-7.597-1.522-11.02-2.901 5.459 4.823 12.239 7.391 18.154 7.553 8.146.222 14.859-1.892 20.112-5.587-.969.203-1.96.385-2.975.545" fill="#fece00" transform="matrix(3.31792765434 0 0 3.31792765434 671.63803731 462.72120351)"/><path d="m0-3.669c3.005.634 5.758 1.702 7.823 3.612 1.453 1.344 3.38 2.407 4.905 3.714.254.218.481.445.72.668.661.048 1.322.099 1.986.164 2.293.226 4.487.616 6.586 1.144-1.22-1.644-2.644-3.238-4.21-4.813-4.343-4.367-9.947-7.423-16.531-9.148-1.429-.374-2.871-.697-4.321-.974-3.262 1.221-6.465 2.595-9.582 4.153 4.111.055 8.329.574 12.624 1.48" fill="#fece00" transform="matrix(3.31792765434 0 0 3.31792765434 358.286953296 172.376804568)"/><path d="m0 10.09c12.139 3.679 23.84 4.324 34.973-.778-1.551-.99-3.141-1.947-4.795-2.846-3.596 1.279-7.637 1.673-11.643 1.918-12.784.784-23.508-4.051-28.003-12.593-2.32-.095-4.634-.115-6.937-.039 1.22 2.476 2.944 4.836 4.997 7.122 2.867 3.192 6.517 5.734 11.408 7.216" fill="#fece00" transform="matrix(3.31792765434 0 0 3.31792765434 504.51707028 135.293024901)"/><path d="m0-2.866c3.412 2.812 7.26 4.494 12.214 5.04 4.046.446 8.006.371 11.71-.429-5.554-2.474-11.59-4.455-18.092-5.832-2.85-.603-5.704-1.065-8.554-1.399.785.894 1.688 1.768 2.722 2.62" fill="#fece00" transform="matrix(3.31792765434 0 0 3.31792765434 505.68373788 141.324279726)"/><path d="m0 20.813c-9.676-19.755-19.811-13.976-19.811-13.976 4.304-6.837 15.027-5.136 19.811 13.976" fill="#03a1e0" transform="matrix(3.31792765434 0 0 3.31792765434 311.390249112 804.81314385)"/><path d="m0-9.653c-.094-2.132 1.598-3.936 3.778-4.029 2.18-.092 4.025 1.562 4.119 3.694.095 2.134-1.597 3.938-3.777 4.03-2.18.093-4.025-1.561-4.12-3.695m-2.43-12.098c-.035-.794.596-1.466 1.407-1.501.812-.034 1.5.582 1.535 1.376.035.795-.595 1.467-1.408 1.501-.811.035-1.499-.582-1.534-1.376m23.854.468c.058 1.325-.992 2.445-2.346 2.503-1.354.057-2.5-.97-2.558-2.295-.059-1.326.991-2.446 2.345-2.503 1.355-.057 2.5.97 2.559 2.295m-5.616-20.595c-.189-4.267 3.194-7.874 7.555-8.059 4.36-.185 8.049 3.123 8.238 7.389.189 4.267-3.193 7.874-7.553 8.059-4.361.185-8.051-3.122-8.24-7.389m.709 41.726c-.569-13.429 11.931-18.194 17.663-26.768 15.041-22.498-.234-39.934-5.693-42.199-10.253 13.645-14.524 5.702-28.491 16.108-9.328 6.95-14.062 18.405-14.885 25.369-1.821 15.407 6.907 30.467 20.735 41.6 19.995 16.098 33.26 7.734 48.464 45.508-5.521-45.88-36.8-36.209-37.793-59.618" fill="#03a1e0" transform="matrix(3.31792765434 0 0 3.31792765434 177.176391741 717.68807415)"/><path d="m-.114-.003c-1.457.003-2.637 1.161-2.637 2.585s1.181 2.577 2.637 2.575c1.457-.004 2.637-1.161 2.636-2.586 0-1.424-1.18-2.576-2.636-2.574" fill="#03a1e0" transform="matrix(3.31465681839 -.14727511782 -.14727511782 -3.31465681839 262.958127033 579.13379664)"/><path d="m0 26.981c-3.704 0-6.71-3.172-6.71-7.079 0-3.91 3.006-7.078 6.71-7.078s6.71 3.168 6.71 7.078c0 3.907-3.006 7.079-6.71 7.079m-3.213 4.897c-.186.705-.766 1.055-1.593.97-5.264-.532-9.823-4.995-10.811-10.418-.133-.721-.007-1.495.769-1.761.677-.234 1.396.084 1.593.844 1.335 5.174 4.409 8.031 9.14 8.99.808.165 1.002.987.902 1.375m10.528-18.697-10.661-20.364c-.064-.127-.297-.599-.837-.599-.508 0-.795.518-.834.595l-10.665 20.368c-1.241 2.149-1.957 4.677-1.957 7.383 0 7.842 6.023 14.199 13.456 14.199s13.459-6.357 13.459-14.199c0-2.706-.716-5.234-1.961-7.383" fill="#03a1e0" transform="matrix(3.31792765434 0 0 3.31792765434 385.034474694 460.48370172)"/><path d="m0 3.084c0-2.09 1.732-3.784 3.865-3.784 2.136 0 3.868 1.694 3.868 3.784 0 2.086-1.732 3.781-3.868 3.781-2.133 0-3.865-1.695-3.865-3.781m2.473 10.541c3.621-.683 5.976-2.709 6.999-6.385.151-.54.702-.767 1.221-.599.594.189.69.738.59 1.25-.759 3.854-4.248 7.022-8.281 7.401-.633.059-1.081-.189-1.22-.69-.079-.277.072-.861.691-.977m-10.261-7.061c0 5.57 4.617 10.086 10.31 10.086 5.694 0 10.311-4.516 10.311-10.086 0-1.918-.551-3.714-1.503-5.241l-8.167-14.465c-.032-.056-.25-.424-.641-.424-.411 0-.607.379-.64.424l-8.166 14.465c-.952 1.527-1.504 3.323-1.504 5.241" fill="#03a1e0" transform="matrix(3.31792765434 0 0 3.31792765434 199.48349292 458.16286653)"/><path d="m0 11.216c-1.51 0-2.738-1.201-2.738-2.682 0-1.477 1.228-2.678 2.738-2.678 1.514 0 2.741 1.201 2.741 2.678 0 1.481-1.227 2.682-2.741 2.682m-2.58 7.341c-.14.494-.58.739-1.21.683-3.997-.375-7.458-3.519-8.209-7.338-.1-.508-.003-1.054.583-1.239.516-.165 1.063.059 1.21.592 1.016 3.648 3.35 5.657 6.942 6.333.616.115.763.696.684.969m7.998-13.166-8.095-14.34c-.032-.049-.229-.423-.637-.423-.386 0-.608.371-.633.42l-8.099 14.343c-.944 1.512-1.489 3.294-1.489 5.198 0 5.521 4.577 9.999 10.221 9.999s10.221-4.478 10.221-9.999c0-1.904-.544-3.686-1.489-5.198" fill="#03a1e0" transform="matrix(3.31792765434 0 0 3.31792765434 304.130659971 698.73805899)"/><path d="m0 37.703c-18.863-27.7.47-37.703 15.118-34.507-25.918 5.851-15.837 29.392-15.118 34.507" fill="#03a1e0" transform="matrix(3.31792765434 0 0 3.31792765434 325.823593992 579.81296385)"/><path d="m0 35.829c-7.915-27.286 6.622-35.829 17.648-34.786-20.775 7.533-17.644 30.693-17.648 34.786" fill="#03a1e0" transform="matrix(3.31792765434 0 0 3.31792765434 121.277180355 521.26291701)"/><path d="m0 .244c2.823 3.266 5.729 6.46 8.584 9.698.52.588.971 1.236 1.716 2.194 2.966-3.608 5.805-6.947 8.516-10.387 3.323-4.214 6.59-8.472 9.867-12.722-1.276-.351-2.576-.654-3.891-.919-4.85 6.124-9.723 12.279-14.66 18.514-4.915-5.784-9.759-11.485-14.571-17.149-1.253.351-2.491.74-3.716 1.162 2.718 3.204 5.407 6.431 8.155 9.609" fill="#03a1e0" transform="matrix(3.31792765434 0 0 3.31792765434 270.24188286 375.431550345)"/><path d="m5.645-9.36c.352 1.73.599 3.433.689 5.038.164 2.944-.128 5.675-.689 8.15-1.222-4.447-2.015-8.8-2.537-13.281.844.031 1.692.062 2.537.093" fill="#03a1e0" transform="matrix(-2.21086010202 2.47401031254 2.47401031254 2.21086010202 446.20452363 491.7503934)"/><path d="m0 10.145c-3.716-4.49-7.476-8.943-11.218-13.41-1.05.434-2.082.905-3.105 1.394 2.69 3.306 5.38 6.612 8.048 9.935.364.455.553 1.049.943 1.813h-25.585c-1.114 1.125-2.187 2.304-3.218 3.533h14.954c.085-.118.164-.227.249-.346.613-.847 1.392-.914 2.001 0 .072.108.152.23.228.346h18.821c-.807-1.259-1.358-2.348-2.118-3.265" fill="#03a1e0" transform="matrix(3.31792765434 0 0 3.31792765434 268.426048074 359.690704419)"/><path d="m0 10.227c1.217 1.509 1.847.906 2.63-.063 1.587-1.966 3.066-4.02 4.647-5.991 1.426-1.777 2.865-3.544 4.298-5.315-1.534-.182-3.087-.31-4.663-.367-2 2.422-4.014 4.861-6.068 7.35-1.988-2.214-3.959-4.409-5.922-6.595-1.378.211-2.747.459-4.103.752.377.439.744.886 1.124 1.322 2.628 3.02 5.549 5.795 8.057 8.907" fill="#03a1e0" transform="matrix(3.31792765434 0 0 3.31792765434 298.789405698 337.3336032)"/><path d="m0 9.156c-.929 1.149-1.798 2.347-2.695 3.522.096.157.193.314.289.471 13.521.343 27.042.687 40.564 1.03-.916-1.17-1.899-2.308-2.923-3.422-10.02-.307-20.061-.637-30.522-.978.787-1.115 1.292-1.909 1.874-2.643 2.837-3.58 5.684-7.152 8.528-10.727-1.186-.517-2.399-.99-3.63-1.432-.041.053-.081.108-.122.16-3.721 4.726-7.579 9.343-11.363 14.019" fill="#03a1e0" transform="matrix(3.31792765434 0 0 3.31792765434 341.156106258 360.125704767)"/><path d="m0 14.077c-.302-4.666-1.578-9.433-3.695-14.064-2.197-.013-4.436-.004-6.812-.004 3.624 4.853 7.03 9.413 10.507 14.068" fill="#03a1e0" transform="matrix(3.31792765434 0 0 3.31792765434 501.17123427 441.73368672)"/><path d="m0 4.752c-.897 1.39-.5 1.735 1.233 1.758 3.748.05 7.496.124 11.245.178 1.201.017 2.403.002 3.605.002.048-.188.096-.377.145-.566-.251-.283-.521-.55-.749-.85-.051-.067-.102-.135-.153-.203-3.21-2.656-6.75-5.033-10.58-7.024-1.648 2.19-3.262 4.406-4.746 6.705" fill="#03a1e0" transform="matrix(3.31792765434 0 0 3.31792765434 387.691560153 360.469871709)"/><path d="m0-6.042c-3.117 1.735-6.078 3.754-8.858 6.042h13.726c-1.672-2.075-3.277-4.068-4.868-6.042" fill="#03a1e0" transform="matrix(3.31792765434 0 0 3.31792765434 209.780584491 379.243220061)"/><path d="m0 24.102c-.316-.48-.635-.958-.966-1.428-1.941-2.754-3.961-5.454-6.007-8.132-3.236-4.238-6.523-8.438-9.789-12.654-.347-.449-.699-.894-1.086-1.389 4.375 0 8.485-.039 12.558.004-.632-1.134-1.327-2.252-2.057-3.357-5.767-.076-11.533-.155-17.299-.277-7.931-.169-15.858-.617-23.789-.646-11.996-.044-23.992-.035-35.988-.016.784 1.245 1.628 2.587 2.474 3.915.583 0 1.156.001 1.721.002 13.165.039 26.329.071 39.493.145 1.081-1.681 2.987-1.643 3.963.146.001.003.003.008.005.011.594.152 1.187.39 1.781.548-.266.461-.499.95-.765 1.412.562 1.105 1.25 2.46 2.049 3.966 1.823-2.104 3.654-4.199 5.478-6.301.073-.083.219-.105.284-.19.681-.883 1.353-1.772 2.026-2.66.952.909 2.023 1.722 2.832 2.743 2.573 3.242 5.078 6.538 7.553 9.856 4.072 5.457 8.075 10.966 12.157 16.415.43.574.872 1.138 1.306 1.708 1.088-.948 1.853-2.277 2.066-3.821" fill="#03a1e0" transform="matrix(3.31792765434 0 0 3.31792765434 500.64206718 428.52534282)"/><path d="m0-4.335c.113 1.406.244 2.841.407 4.335 0-.089.009-1.85.461-4.335z" fill="#03a1e0" transform="matrix(3.31792765434 0 0 3.31792765434 108.499670133 574.52545962)"/><path d="m0-26.739c-2.061 2.501-4.103 4.979-6.154 7.47.639 1.107 1.319 2.231 2.033 3.345 1.401-1.718 2.804-3.44 4.228-5.187 5.035 6.96 9.839 13.602 14.604 20.19 1.261.363 2.455.629 3.54.817.518.089 1.029.104 1.529.065-6.378-9.137-12.965-17.932-19.78-26.7" fill="#03a1e0" transform="matrix(3.31792765434 0 0 3.31792765434 416.294083035 526.28375436)"/><path d="m0-8.877c.316-.402.63-.808.948-1.208-.423-1.047-.986-2.964-.768-5.45-2.585 3.283-5.145 6.584-7.691 9.897-2.464 3.206-4.914 6.425-7.288 9.698-.055.075-.088.169-.13.254.036.767.082 1.552.137 2.344h1.258c1.251-5.429 4.592-13.093 13.534-15.535" fill="#03a1e0" transform="matrix(3.31792765434 0 0 3.31792765434 157.246375797 533.39209338)"/><path d="m0-12.143c.731.964 1.468 1.924 2.204 2.886 2.991 1.661 5.776 1.81 5.776 1.81.014 0 .026.002.04.002-.733-1.124-1.39-2.315-1.894-3.637 1.33 0 2.249-.001 3.169 0 4.851.009 9.703.007 14.554.046.526.005 1.05.249 1.575.383-.24.413-.415.885-.73 1.231-2.359 2.59-4.736 5.163-7.11 7.738.784 1.52 1.225 3.121 1.469 4.512 1.902-2.376 3.802-4.754 5.779-7.066 1.774-2.077 3.634-4.082 5.482-6.097.02-.033.038-.062.058-.095.921-1.52 1.826-3.012 2.737-4.541h-35.233c.933 1.243 1.524 2.038 2.124 2.828" fill="#03a1e0" transform="matrix(3.31792765434 0 0 3.31792765434 248.417698734 491.28372636)"/><path d="m0-25.116c1.295-.013 2.591-.022 3.887-.035 1.473-.015 2.944-.178 4.416-.274l.176.604c-5.606 7.247-11.212 14.495-16.818 21.742-.378 2.227-.603 4.53-.702 6.934 2.234-3.079 4.457-6.167 6.738-9.211 1.616-2.157 3.47-4.135 5.154-6.243 2.97-3.719 5.908-7.465 8.829-11.223 1.176-1.513 2.241-3.112 3.441-4.606.172-.214 1.027-.24 1.205-.038l.147.171c.39-.539.793-1.097 1.211-1.676-5.054.009-10.107.018-15.161.026-.881 1.23-1.722 2.508-2.523 3.829" fill="#03a1e0" transform="matrix(3.31792765434 0 0 3.31792765434 137.59594341 512.10874302)"/><path d="m0-9.731c-1.158 0-2.243.007-3.302.013-1.577 3.029-2.952 6.266-4.096 9.718 2.418-3.18 4.864-6.398 7.398-9.731" fill="#03a1e0" transform="matrix(3.31792765434 0 0 3.31792765434 141.931780212 472.73371152)"/><g transform="matrix(3.31792765434 0 0 3.31792765434 -468.92954181 -381.512388543)"><g fill="#00a19c"><path d="m536.259 166.294h4.737l2.16-7.051h.088l2.159 7.051h4.737l5.178-15.424h-6.169l-1.653 7.932h-.11l-1.983-7.932h-4.407l-1.983 7.932h-.11l-1.652-7.932h-6.17z"/><path d="m563.581 150.429c-5.178 0-8.814 3.636-8.814 8.153s3.636 8.152 8.814 8.152 8.813-3.635 8.813-8.152-3.635-8.153-8.813-8.153zm-3.085 8.153c0-1.763 1.322-3.085 3.085-3.085 1.762 0 3.084 1.322 3.084 3.085 0 1.762-1.322 3.084-3.084 3.084-1.763 0-3.085-1.322-3.085-3.084z"/><path d="m574.157 166.294h5.729v-4.187h.991l1.983 4.187h5.949l-2.974-5.289c.44-.286.837-.639 1.211-1.057.595-.727 1.212-1.851 1.212-3.459 0-3.195-2.423-5.619-6.169-5.619h-7.932zm5.729-8.594v-2.423h1.322c.881 0 1.322.529 1.322 1.212s-.441 1.211-1.322 1.211z"/><path d="m590.241 166.294h11.898v-5.289h-6.169v-10.135h-5.729z"/><path d="m603.682 166.294h6.39c5.177 0 8.593-3.416 8.593-7.712 0-4.297-3.416-7.712-8.593-7.712h-6.39zm5.729-4.628v-6.169h.661c1.762 0 2.864 1.08 2.864 3.085s-1.102 3.084-2.864 3.084z"/><path d="m636.512 160.124c-.242.287-.529.551-.859.771-.595.419-1.411.771-2.446.771-1.983 0-3.305-1.322-3.305-3.084 0-1.763 1.322-3.085 3.305-3.085 1.035 0 1.851.397 2.446.771.33.243.617.485.859.771l3.415-3.525c-.463-.573-1.013-1.08-1.697-1.542-1.145-.772-2.864-1.543-5.244-1.543-5.177 0-8.813 3.636-8.813 8.153s3.636 8.152 8.813 8.152c2.38 0 4.099-.771 5.244-1.542.684-.463 1.234-.97 1.697-1.543z"/><path d="m641.249 166.294h11.898v-5.289h-6.169v-10.135h-5.729z"/><path d="m654.69 150.87h5.729v15.424h-5.729z"/><path d="m663.062 166.294h5.729v-7.382l3.195 3.966 3.195-3.966v7.382h5.729v-15.424h-5.068l-3.856 4.847-3.856-4.847h-5.068z"/><path d="m681.571 166.294h6.169l.661-2.645h3.746l.661 2.645h6.169l-5.508-15.424h-6.39zm7.601-5.95 1.058-4.296h.088l1.058 4.296z"/><path d="m701.18 166.294h5.729v-10.136h3.966v-5.288h-13.661v5.288h3.966z"/><path d="m712.418 166.294h12.889v-4.407h-7.161v-1.543h5.178v-3.525h-5.178v-1.542h6.941v-4.407h-12.669z"/><path d="m532.954 186.741h5.729v-4.187h.991l1.983 4.187h5.949l-2.974-5.288c.44-.287.837-.639 1.212-1.058.595-.727 1.211-1.851 1.211-3.459 0-3.195-2.423-5.619-6.169-5.619h-7.932zm5.729-8.593v-2.424h1.322c.881 0 1.322.529 1.322 1.212s-.441 1.212-1.322 1.212z"/><path d="m549.038 186.741h12.89v-4.407h-7.161v-1.542h5.178v-3.526h-5.178v-1.542h6.941v-4.407h-12.67z"/><path d="m562.369 184.537c.463.507 1.035.948 1.696 1.322 1.124.683 2.821 1.322 5.024 1.322 4.407 0 6.72-2.335 6.72-5.067 0-4.848-6.389-4.738-6.389-6.06 0-.286.264-.55.881-.55.595 0 1.124.198 1.498.44.221.132.419.287.595.441l3.195-3.305c-.375-.419-.859-.771-1.454-1.102-.992-.551-2.49-1.102-4.605-1.102-4.076 0-6.5 2.446-6.5 4.848 0 4.627 6.39 4.737 6.39 6.169 0 .331-.309.661-.992.661-.771 0-1.476-.33-2.005-.661-.308-.198-.595-.418-.859-.661z"/><path d="m577.352 186.741h12.889v-4.407h-7.161v-1.542h5.178v-3.526h-5.178v-1.542h6.941v-4.407h-12.669z"/><path d="m590.241 186.741h6.17l.661-2.644h3.745l.661 2.644h6.17l-5.509-15.424h-6.389zm7.602-5.949 1.058-4.297h.088l1.057 4.297z"/><path d="m608.309 186.741h5.729v-4.187h.991l1.983 4.187h5.949l-2.974-5.288c.44-.287.837-.639 1.212-1.058.594-.727 1.211-1.851 1.211-3.459 0-3.195-2.423-5.619-6.169-5.619h-7.932zm5.729-8.593v-2.424h1.322c.881 0 1.322.529 1.322 1.212s-.441 1.212-1.322 1.212z"/><path d="m635.851 180.571c-.243.287-.529.551-.859.771-.595.419-1.411.772-2.446.772-1.983 0-3.305-1.322-3.305-3.085s1.322-3.085 3.305-3.085c1.035 0 1.851.397 2.446.771.33.243.616.485.859.772l3.415-3.526c-.463-.573-1.013-1.079-1.697-1.542-1.145-.771-2.864-1.543-5.244-1.543-5.177 0-8.813 3.636-8.813 8.153s3.636 8.152 8.813 8.152c2.38 0 4.099-.771 5.244-1.542.684-.463 1.234-.969 1.697-1.542z"/><path d="m640.588 186.741h5.729v-5.288h3.635v5.288h5.729v-15.424h-5.729v5.068h-3.635v-5.068h-5.729z"/><path d="m662.952 186.741h5.729v-3.966h1.873c3.856 0 6.279-2.424 6.279-5.729s-2.423-5.729-6.279-5.729h-7.602zm5.729-8.373v-2.644h.881c.992 0 1.543.551 1.543 1.322s-.551 1.322-1.543 1.322z"/><path d="m678.376 186.741h5.728v-4.187h.992l1.983 4.187h5.949l-2.974-5.288c.44-.287.837-.639 1.211-1.058.595-.727 1.212-1.851 1.212-3.459 0-3.195-2.423-5.619-6.169-5.619h-7.932zm5.728-8.593v-2.424h1.322c.882 0 1.322.529 1.322 1.212s-.44 1.212-1.322 1.212z"/><path d="m702.392 170.876c-5.178 0-8.813 3.636-8.813 8.153s3.635 8.152 8.813 8.152 8.814-3.635 8.814-8.152-3.636-8.153-8.814-8.153zm-3.084 8.153c0-1.763 1.322-3.085 3.084-3.085 1.763 0 3.085 1.322 3.085 3.085s-1.322 3.085-3.085 3.085c-1.762 0-3.084-1.322-3.084-3.085z"/><path d="m720.24 180.571h2.644v1.212c-.155.066-.309.11-.507.176-.331.089-.793.155-1.476.155-1.763 0-3.085-1.322-3.085-3.085s1.322-3.085 3.305-3.085c1.035 0 1.851.397 2.446.771.33.243.617.485.859.772l3.415-3.526c-.463-.573-1.013-1.079-1.696-1.542-1.146-.771-2.865-1.543-5.244-1.543-5.178 0-8.814 3.636-8.814 8.153s3.636 8.152 8.814 8.152c2.379 0 4.142-.793 5.31-1.586.683-.463 1.278-1.014 1.74-1.609v-5.838h-7.711z"/><path d="m730.265 186.741h5.729v-4.187h.991l1.983 4.187h5.949l-2.974-5.288c.44-.287.837-.639 1.211-1.058.595-.727 1.212-1.851 1.212-3.459 0-3.195-2.423-5.619-6.169-5.619h-7.932zm5.729-8.593v-2.424h1.322c.881 0 1.322.529 1.322 1.212s-.441 1.212-1.322 1.212z"/><path d="m744.366 186.741h6.17l.661-2.644h3.745l.661 2.644h6.17l-5.509-15.424h-6.389zm7.602-5.949 1.058-4.297h.088l1.057 4.297z"/><path d="m762.434 186.741h5.729v-7.382l3.195 3.966 3.194-3.966v7.382h5.729v-15.424h-5.068l-3.855 4.848-3.856-4.848h-5.068z"/><path d="m782.925 186.741h5.729v-7.382l3.195 3.966 3.195-3.966v7.382h5.728v-15.424h-5.067l-3.856 4.848-3.856-4.848h-5.068z"/><path d="m803.416 186.741h12.89v-4.407h-7.161v-1.542h5.178v-3.526h-5.178v-1.542h6.941v-4.407h-12.67z"/></g><path d="m534.83 242.639c-2.167-2.144-3.25-4.968-3.25-8.473v-26.421c0-3.504 1.083-6.329 3.25-8.473s5.003-3.216 8.508-3.216c3.504 0 6.34 1.072 8.507 3.216s3.251 4.969 3.251 8.473v26.421c0 3.505-1.084 6.329-3.251 8.473s-5.003 3.216-8.507 3.216c-3.505 0-6.341-1.072-8.508-3.216zm11.758-4.945c.784-.83 1.176-2.006 1.176-3.528v-26.421c0-1.522-.392-2.697-1.176-3.527-.783-.83-1.867-1.245-3.25-1.245-1.384 0-2.467.415-3.251 1.245s-1.176 2.005-1.176 3.527v26.421c0 1.522.392 2.698 1.176 3.528s1.867 1.245 3.251 1.245c1.383 0 2.467-.415 3.25-1.245z" fill="#a3d55e"/><path d="m559.73 196.748h11.481c3.505 0 6.294 1.049 8.369 3.147s3.113 4.899 3.113 8.403v5.672c0 3.504-1.038 6.306-3.113 8.404s-4.864 3.147-8.369 3.147h-4.15v19.643h-7.331zm11.136 21.856c1.429 0 2.536-.392 3.319-1.176.784-.784 1.176-1.89 1.176-3.32v-5.948c0-1.429-.392-2.536-1.176-3.32-.783-.784-1.89-1.176-3.319-1.176h-3.805v14.94z" fill="#a3d55e"/><path d="m586.082 196.748h20.819v6.916h-13.488v13.488h10.721v6.916h-10.721v14.179h13.488v6.917h-20.819z" fill="#a3d55e"/><path d="m610.29 196.748h8.092l9.338 32.508v-32.508h7.193v48.416h-7.747l-9.683-30.987v30.987h-7.193z" fill="#a3d55e"/><path d="m655.247 244.334c-1.798-1.015-3.193-2.421-4.184-4.219-.991-1.799-1.487-3.851-1.487-6.156v-1.729l7.055-.761v1.798c0 1.752.415 3.136 1.245 4.15s1.982 1.522 3.458 1.522c1.429 0 2.571-.415 3.424-1.245s1.279-1.96 1.279-3.389c0-1.568-.449-3.067-1.348-4.496-.9-1.43-2.686-3.412-5.361-5.948-3.596-3.413-6.052-6.248-7.366-8.508-1.314-2.259-1.971-4.726-1.971-7.4 0-3.643.991-6.537 2.974-8.681s4.703-3.216 8.161-3.216c3.459 0 6.179 1.084 8.162 3.251s2.974 5.072 2.974 8.715v1.245l-7.055.761v-1.384c0-1.844-.346-3.251-1.037-4.219-.692-.968-1.683-1.452-2.974-1.452s-2.283.392-2.974 1.175c-.692.784-1.038 1.937-1.038 3.459 0 1.521.461 2.985 1.383 4.392.923 1.406 2.698 3.423 5.326 6.052 3.597 3.596 6.052 6.49 7.366 8.68s1.971 4.6 1.971 7.228c0 2.305-.495 4.357-1.487 6.156-.991 1.798-2.386 3.204-4.184 4.219-1.798 1.014-3.85 1.521-6.156 1.521-2.305 0-4.357-.507-6.156-1.521z" fill="#a3d55e"/><path d="m679.248 242.674c-2.121-2.121-3.182-4.888-3.182-8.3v-26.836c0-3.413 1.061-6.179 3.182-8.3s4.888-3.182 8.3-3.182 6.178 1.061 8.3 3.182c2.121 2.121 3.181 4.887 3.181 8.3v5.671h-7.193v-5.671c0-1.384-.392-2.49-1.176-3.32s-1.798-1.245-3.043-1.245-2.26.415-3.043 1.245c-.784.83-1.176 1.936-1.176 3.32v26.836c0 1.383.392 2.49 1.176 3.32.783.83 1.798 1.245 3.043 1.245s2.259-.415 3.043-1.245 1.176-1.937 1.176-3.32v-6.917h7.193v6.917c0 3.412-1.06 6.179-3.181 8.3-2.122 2.121-4.888 3.181-8.3 3.181s-6.179-1.06-8.3-3.181z" fill="#a3d55e"/><path d="m702.972 196.748h7.332v48.416h-7.332z" fill="#a3d55e"/><path d="m715.56 196.748h20.819v6.916h-13.488v13.488h10.721v6.916h-10.721v14.179h13.488v6.917h-20.819z" fill="#a3d55e"/><path d="m739.768 196.748h8.092l9.337 32.508v-32.508h7.194v48.416h-7.747l-9.683-30.987v30.987h-7.193z" fill="#a3d55e"/><path d="m772.206 242.674c-2.121-2.121-3.181-4.888-3.181-8.3v-26.836c0-3.413 1.06-6.179 3.181-8.3s4.888-3.182 8.3-3.182 6.179 1.061 8.3 3.182 3.182 4.887 3.182 8.3v5.671h-7.194v-5.671c0-1.384-.392-2.49-1.175-3.32-.784-.83-1.799-1.245-3.044-1.245s-2.259.415-3.043 1.245-1.176 1.936-1.176 3.32v26.836c0 1.383.392 2.49 1.176 3.32s1.798 1.245 3.043 1.245 2.26-.415 3.044-1.245c.783-.83 1.175-1.937 1.175-3.32v-6.917h7.194v6.917c0 3.412-1.061 6.179-3.182 8.3s-4.888 3.181-8.3 3.181-6.179-1.06-8.3-3.181z" fill="#a3d55e"/><path d="m795.93 196.748h20.819v6.916h-13.487v13.488h10.72v6.916h-10.72v14.179h13.487v6.917h-20.819z" fill="#a3d55e"/><path d="m534.761 299.044c-2.121-2.122-3.181-4.888-3.181-8.3v-26.837c0-3.412 1.06-6.178 3.181-8.299s4.888-3.182 8.3-3.182 6.179 1.061 8.3 3.182 3.181 4.887 3.181 8.299v5.672h-7.193v-5.672c0-1.383-.392-2.49-1.176-3.319-.783-.83-1.798-1.245-3.043-1.245s-2.259.415-3.043 1.245c-.784.829-1.176 1.936-1.176 3.319v26.837c0 1.383.392 2.49 1.176 3.32s1.798 1.245 3.043 1.245 2.26-.415 3.043-1.245c.784-.83 1.176-1.937 1.176-3.32v-6.917h7.193v6.917c0 3.412-1.06 6.178-3.181 8.3-2.121 2.121-4.888 3.181-8.3 3.181s-6.179-1.06-8.3-3.181z" fill="#a3d55e"/><path d="m561.39 299.009c-2.167-2.144-3.251-4.968-3.251-8.473v-26.421c0-3.504 1.084-6.329 3.251-8.473s5.003-3.216 8.507-3.216c3.505 0 6.34 1.072 8.508 3.216 2.167 2.144 3.25 4.969 3.25 8.473v26.421c0 3.505-1.083 6.329-3.25 8.473-2.168 2.144-5.003 3.216-8.508 3.216-3.504 0-6.34-1.072-8.507-3.216zm11.758-4.945c.784-.83 1.176-2.006 1.176-3.528v-26.421c0-1.522-.392-2.698-1.176-3.527-.784-.83-1.867-1.245-3.251-1.245-1.383 0-2.467.415-3.251 1.245-.783.829-1.175 2.005-1.175 3.527v26.421c0 1.522.392 2.698 1.175 3.528.784.83 1.868 1.245 3.251 1.245 1.384 0 2.467-.415 3.251-1.245z" fill="#a3d55e"/><path d="m586.289 253.118h8.093l9.337 32.507v-32.507h7.193v48.415h-7.746l-9.683-30.986v30.986h-7.194z" fill="#a3d55e"/><path d="m616.169 253.118h20.473v6.916h-13.142v14.179h10.375v6.917h-10.375v20.403h-7.331z" fill="#a3d55e"/><path d="m639.547 253.118h20.819v6.916h-13.488v13.487h10.721v6.917h-10.721v14.179h13.488v6.916h-20.819z" fill="#a3d55e"/><path d="m680.216 301.533-5.326-19.988h-3.804v19.988h-7.331v-48.415h11.481c3.505 0 6.294 1.049 8.369 3.147s3.113 4.899 3.113 8.403v5.326c0 2.213-.438 4.173-1.314 5.879-.877 1.706-2.121 3.043-3.735 4.012l6.155 21.648zm-9.13-26.905h3.804c1.43 0 2.536-.392 3.32-1.176s1.176-1.89 1.176-3.32v-5.602c0-1.429-.392-2.536-1.176-3.32s-1.89-1.176-3.32-1.176h-3.804z" fill="#a3d55e"/><path d="m691.075 253.118h20.819v6.916h-13.487v13.487h10.72v6.917h-10.72v14.179h13.487v6.916h-20.819z" fill="#a3d55e"/><path d="m715.283 253.118h8.092l9.338 32.507v-32.507h7.193v48.415h-7.747l-9.683-30.986v30.986h-7.193z" fill="#a3d55e"/><path d="m747.722 299.044c-2.121-2.122-3.182-4.888-3.182-8.3v-26.837c0-3.412 1.061-6.178 3.182-8.299s4.887-3.182 8.3-3.182c3.412 0 6.178 1.061 8.299 3.182s3.182 4.887 3.182 8.299v5.672h-7.193v-5.672c0-1.383-.392-2.49-1.176-3.319-.784-.83-1.798-1.245-3.043-1.245s-2.26.415-3.044 1.245c-.783.829-1.175 1.936-1.175 3.319v26.837c0 1.383.392 2.49 1.175 3.32.784.83 1.799 1.245 3.044 1.245s2.259-.415 3.043-1.245 1.176-1.937 1.176-3.32v-6.917h7.193v6.917c0 3.412-1.061 6.178-3.182 8.3-2.121 2.121-4.887 3.181-8.299 3.181-3.413 0-6.179-1.06-8.3-3.181z" fill="#a3d55e"/><path d="m771.445 253.118h20.819v6.916h-13.487v13.487h10.721v6.917h-10.721v14.179h13.487v6.916h-20.819z" fill="#a3d55e"/><path d="m543.769 327.923c1.16-.928 4.637-2.145 4.637-5.217 0-2.395-2.028-4.443-5.506-4.443-2.183 0-3.671.831-4.579 1.642-.541.483-.985 1.043-1.313 1.642l4.057 1.836c.116-.116.232-.232.367-.329.212-.174.502-.348.792-.348.386 0 .58.194.58.58 0 1.739-5.603 1.913-5.603 8.887h11.012v-4.25z" fill="#fff"/><path d="m548.406 330.338c.406.405.87.792 1.43 1.12.946.56 2.357 1.101 4.269 1.101 3.768 0 5.796-2.028 5.796-4.153 0-1.391-.734-2.241-1.449-2.724-.425-.29-.908-.483-1.449-.619v-.077c.483-.135.908-.309 1.295-.56.676-.445 1.313-1.14 1.313-2.299 0-1.932-1.932-3.864-5.409-3.864-1.913 0-3.226.464-4.076.927-.503.271-.908.58-1.237.908l2.705 2.802c.135-.097.29-.194.464-.29.289-.135.695-.29 1.178-.29s.773.386.773.773c0 .386-.29.773-.773.773h-1.256v2.897h1.353c.598 0 .966.387.966.87s-.368.869-.966.869c-.599 0-1.14-.232-1.546-.483-.232-.135-.464-.309-.676-.483z" fill="#fff"/><path d="m565.021 324.445h6.955v4.057h-6.955z" fill="#fff"/><path d="m583.567 327.923c1.16-.928 4.637-2.145 4.637-5.217 0-2.395-2.028-4.443-5.506-4.443-2.183 0-3.671.831-4.579 1.642-.541.483-.985 1.043-1.313 1.642l4.057 1.836c.116-.116.232-.232.367-.329.212-.174.502-.348.792-.348.386 0 .579.194.579.58 0 1.739-5.602 1.913-5.602 8.887h11.012v-4.25z" fill="#fff"/><path d="m589.17 332.173h5.41l4.733-9.467v-4.057h-10.529v4.637h4.83z" fill="#fff"/><path d="m611.581 318.263c-4.54 0-7.728 3.188-7.728 7.148 0 3.961 3.188 7.148 7.728 7.148s7.727-3.187 7.727-7.148c0-3.96-3.187-7.148-7.727-7.148zm-2.705 7.148c0-1.545 1.159-2.705 2.705-2.705 1.545 0 2.704 1.16 2.704 2.705 0 1.546-1.159 2.705-2.704 2.705-1.546 0-2.705-1.159-2.705-2.705z" fill="#fff"/><path d="m630.9 326.763c-.213.252-.464.483-.753.677-.522.367-1.237.676-2.145.676-1.739 0-2.898-1.159-2.898-2.705 0-1.545 1.159-2.705 2.898-2.705.908 0 1.623.348 2.145.677.289.212.54.425.753.676l2.994-3.091c-.405-.503-.888-.947-1.487-1.353-1.005-.676-2.512-1.352-4.598-1.352-4.54 0-7.728 3.188-7.728 7.148 0 3.961 3.188 7.148 7.728 7.148 2.086 0 3.593-.676 4.598-1.352.599-.406 1.082-.85 1.487-1.352z" fill="#fff"/><path d="m637.565 332.173h5.023v-8.887h3.478v-4.637h-11.978v4.637h3.477z" fill="#fff"/><path d="m645.1 330.144c0 1.256.946 2.222 2.415 2.222 1.468 0 2.415-.966 2.415-2.222 0-1.255-.947-2.221-2.415-2.221-1.469 0-2.415.966-2.415 2.221z" fill="#fff"/><path d="m661.135 327.923c1.159-.928 4.636-2.145 4.636-5.217 0-2.395-2.028-4.443-5.506-4.443-2.183 0-3.67.831-4.578 1.642-.541.483-.986 1.043-1.314 1.642l4.057 1.836c.116-.116.232-.232.367-.329.213-.174.502-.348.792-.348.387 0 .58.194.58.58 0 1.739-5.603 1.913-5.603 8.887h11.012v-4.25z" fill="#fff"/><path d="m672.92 332.559c3.477 0 6.278-2.801 6.278-7.148s-2.801-7.148-6.278-7.148c-3.478 0-6.279 2.801-6.279 7.148s2.801 7.148 6.279 7.148zm0-4.443c-.696 0-1.256-.599-1.256-2.705s.56-2.705 1.256-2.705c.695 0 1.255.599 1.255 2.705s-.56 2.705-1.255 2.705z" fill="#fff"/><path d="m686.443 327.923c1.159-.928 4.637-2.145 4.637-5.217 0-2.395-2.029-4.443-5.506-4.443-2.183 0-3.671.831-4.579 1.642-.541.483-.985 1.043-1.314 1.642l4.058 1.836c.115-.116.231-.232.367-.329.212-.174.502-.348.792-.348.386 0 .579.194.579.58 0 1.739-5.602 1.913-5.602 8.887h11.012v-4.25z" fill="#fff"/><path d="m691.08 330.338c.406.405.869.792 1.43 1.12.946.56 2.357 1.101 4.269 1.101 3.767 0 5.796-2.028 5.796-4.153 0-1.391-.734-2.241-1.449-2.724-.425-.29-.908-.483-1.449-.619v-.077c.483-.135.908-.309 1.294-.56.677-.445 1.314-1.14 1.314-2.299 0-1.932-1.932-3.864-5.409-3.864-1.913 0-3.227.464-4.077.927-.502.271-.908.58-1.236.908l2.705 2.802c.135-.097.289-.194.463-.29.29-.135.696-.29 1.179-.29s.773.386.773.773c0 .386-.29.773-.773.773h-1.256v2.897h1.352c.599 0 .966.387.966.87s-.367.869-.966.869-1.139-.232-1.545-.483c-.232-.135-.464-.309-.676-.483z" fill="#fff"/><path d="m709.047 318.456h4.443v17.774h-4.443z" fill="#fff"/><path d="m720.832 332.173h5.023v-3.671h.869l1.739 3.671h5.216l-2.608-4.637c.386-.251.734-.56 1.063-.927.521-.638 1.062-1.623 1.062-3.033 0-2.802-2.125-4.927-5.409-4.927h-6.955zm5.023-7.535v-2.125h1.159c.773 0 1.159.464 1.159 1.063s-.386 1.062-1.159 1.062z" fill="#fff"/><path d="m737.446 332.173h4.154l1.893-6.182h.078l1.893 6.182h4.154l4.54-13.524h-5.41l-1.449 6.955h-.096l-1.739-6.955h-3.864l-1.739 6.955h-.096l-1.449-6.955h-5.41z" fill="#fff"/><path d="m751.936 332.173h5.409l.58-2.318h3.284l.58 2.318h5.409l-4.83-13.524h-5.602zm6.665-5.216.928-3.768h.077l.927 3.768z" fill="#fff"/><path d="m767.778 332.173h5.023v-5.603l4.347 5.603h4.25v-13.524h-5.023v5.603l-4.347-5.603h-4.25z" fill="#fff"/><path d="m783.716 332.173h5.603c4.54 0 7.535-2.995 7.535-6.762s-2.995-6.762-7.535-6.762h-5.603zm5.023-4.057v-5.41h.58c1.546 0 2.512.947 2.512 2.705s-.966 2.705-2.512 2.705z" fill="#fff"/><path d="m796.274 332.173h5.409l.58-2.318h3.284l.58 2.318h5.409l-4.829-13.524h-5.603zm6.665-5.216.928-3.768h.077l.927 3.768z" fill="#fff"/></g><g transform="matrix(3.31792765434 0 0 3.31792765434 -468.92954181 -381.512388543)"><path d="m408.604 241.813c0 6.533-.154 11.159-.462 13.877s-1.272 5.202-2.892 7.451-3.809 3.976-6.567 5.181-5.971 1.808-9.64 1.808c-3.481 0-6.607-.569-9.379-1.707-2.771-1.138-5-2.845-6.687-5.121s-2.691-4.753-3.013-7.431c-.321-2.678-.482-7.364-.482-14.058v-11.126c0-6.534.154-11.16.462-13.878s1.272-5.201 2.892-7.451c1.62-2.249 3.809-3.976 6.567-5.181s5.972-1.807 9.64-1.807c3.481 0 6.608.569 9.379 1.707s5.001 2.845 6.688 5.121 2.691 4.753 3.012 7.431c.321 2.677.482 7.363.482 14.058zm-16.91-21.369c0-3.026-.167-4.96-.502-5.804-.335-.843-1.024-1.265-2.068-1.265-.884 0-1.56.341-2.029 1.024-.468.683-.703 2.698-.703 6.045v30.366c0 3.776.154 6.105.462 6.989.308.883 1.024 1.325 2.149 1.325 1.151 0 1.888-.508 2.209-1.526s.482-3.441.482-7.27z" fill="#a3d55e"/><path d="m447.428 223.417h-15.705v-4.82c0-2.25-.2-3.682-.602-4.298s-1.071-.924-2.008-.924c-1.018 0-1.788.415-2.31 1.245s-.783 2.089-.783 3.776c0 2.169.294 3.802.883 4.9.563 1.098 2.156 2.423 4.78 3.977 7.525 4.471 12.264 8.14 14.219 11.005s2.932 7.484 2.932 13.857c0 4.633-.542 8.047-1.627 10.243-1.084 2.196-3.179 4.036-6.286 5.523-3.106 1.486-6.721 2.229-10.844 2.229-4.526 0-8.388-.857-11.588-2.571s-5.296-3.896-6.286-6.547c-.991-2.651-1.486-6.413-1.486-11.287v-4.257h15.704v7.913c0 2.436.221 4.003.663 4.699s1.225 1.044 2.35 1.044 1.961-.442 2.51-1.325c.549-.884.824-2.196.824-3.936 0-3.83-.522-6.333-1.567-7.512-1.071-1.178-3.708-3.146-7.912-5.904-4.205-2.785-6.989-4.806-8.355-6.065s-2.497-2.999-3.394-5.222c-.897-2.222-1.346-5.061-1.346-8.515 0-4.98.636-8.622 1.908-10.925s3.327-4.104 6.166-5.402c2.838-1.299 6.266-1.948 10.282-1.948 4.392 0 8.134.709 11.227 2.128 3.093 1.42 5.141 3.207 6.145 5.363 1.004 2.155 1.506 5.817 1.506 10.985z" fill="#a3d55e"/><path d="m490.309 232.092h-16.909v-11.326c0-3.294-.181-5.349-.543-6.166-.361-.817-1.158-1.225-2.39-1.225-1.392 0-2.276.495-2.651 1.486-.374.991-.562 3.133-.562 6.427v30.205c0 3.159.188 5.221.562 6.185.375.964 1.219 1.446 2.531 1.446 1.258 0 2.082-.482 2.47-1.446s.583-3.226.583-6.788v-8.153h16.909v2.53c0 6.721-.475 11.488-1.425 14.299-.951 2.812-3.053 5.275-6.307 7.391-3.253 2.115-7.263 3.173-12.029 3.173-4.954 0-9.038-.897-12.251-2.691s-5.342-4.278-6.386-7.451c-1.045-3.173-1.567-7.946-1.567-14.319v-18.999c0-4.686.161-8.201.482-10.544s1.279-4.599 2.872-6.768 3.802-3.876 6.627-5.121 6.072-1.867 9.741-1.867c4.98 0 9.091.964 12.331 2.891 3.24 1.928 5.369 4.332 6.386 7.21 1.018 2.879 1.526 7.357 1.526 13.436z" fill="#a3d55e"/><g fill="#246141"><path d="m398.549 315.108v8.512h-27.415v-7.124c8.121-13.281 12.947-21.499 14.478-24.655 1.532-3.156 2.298-5.618 2.298-7.386 0-1.357-.231-2.369-.694-3.037s-1.167-1.002-2.112-1.002c-.946 0-1.65.37-2.113 1.11-.462.74-.694 2.21-.694 4.41v4.749h-11.163v-1.82c0-2.796.144-5.001.432-6.615.288-1.613.997-3.202 2.128-4.764 1.13-1.562 2.6-2.745 4.409-3.546 1.809-.802 3.978-1.203 6.507-1.203 4.955 0 8.702 1.228 11.241 3.685s3.808 5.566 3.808 9.329c0 2.857-.714 5.879-2.143 9.066s-5.638 9.95-12.628 20.291z"/><path d="m430.252 290.592v16.653c0 3.782-.206 6.537-.617 8.264s-1.264 3.341-2.559 4.842-2.858 2.58-4.688 3.238c-1.829.658-3.875.987-6.136.987-2.981 0-5.459-.345-7.432-1.033-1.974-.689-3.547-1.763-4.719-3.223-1.171-1.46-2.004-2.996-2.497-4.61-.494-1.614-.741-4.179-.741-7.694v-17.424c0-4.584.396-8.018 1.188-10.3.791-2.282 2.364-4.112 4.718-5.489s5.206-2.066 8.557-2.066c2.735 0 5.181.478 7.34 1.434s3.772 2.123 4.841 3.5 1.794 2.93 2.175 4.657c.38 1.726.57 4.481.57 8.264zm-12.459-4.194c0-2.652-.128-4.312-.385-4.98s-.858-1.002-1.804-1.002c-.925 0-1.537.354-1.835 1.063-.298.71-.447 2.349-.447 4.919v24.362c0 2.899.139 4.646.416 5.243.278.596.879.894 1.804.894s1.532-.35 1.82-1.049.431-2.271.431-4.718z"/><path d="m459.056 315.108v8.512h-27.415v-7.124c8.121-13.281 12.947-21.499 14.479-24.655 1.531-3.156 2.297-5.618 2.297-7.386 0-1.357-.231-2.369-.694-3.037-.462-.668-1.166-1.002-2.112-1.002s-1.65.37-2.112 1.11c-.463.74-.694 2.21-.694 4.41v4.749h-11.164v-1.82c0-2.796.144-5.001.432-6.615.288-1.613.997-3.202 2.128-4.764s2.601-2.745 4.41-3.546c1.809-.802 3.978-1.203 6.507-1.203 4.954 0 8.701 1.228 11.24 3.685s3.809 5.566 3.809 9.329c0 2.857-.715 5.879-2.144 9.066s-5.638 9.95-12.628 20.291z"/><path d="m484.777 295.341c1.891.637 3.3 1.681 4.225 3.13.925 1.45 1.387 4.847 1.387 10.192 0 3.968-.452 7.047-1.356 9.236-.905 2.19-2.468 3.855-4.688 4.996s-5.068 1.711-8.542 1.711c-3.947 0-7.046-.663-9.298-1.989-2.251-1.326-3.731-2.95-4.44-4.872-.71-1.922-1.064-5.258-1.064-10.007v-3.947h12.458v8.11c0 2.159.129 3.531.386 4.117s.827.879 1.711.879c.967 0 1.604-.37 1.912-1.11.309-.74.463-2.673.463-5.798v-3.454c0-1.912-.216-3.31-.648-4.194-.431-.884-1.069-1.464-1.912-1.742s-2.477-.437-4.903-.478v-7.247c2.96 0 4.79-.113 5.489-.339s1.203-.72 1.511-1.48c.309-.761.463-1.953.463-3.578v-2.775c0-1.747-.18-2.899-.54-3.454s-.92-.832-1.68-.832c-.864 0-1.455.293-1.774.878-.318.586-.478 1.835-.478 3.747v4.102h-12.458v-4.256c0-4.77 1.089-7.992 3.269-9.668 2.179-1.675 5.643-2.513 10.392-2.513 5.941 0 9.971 1.162 12.089 3.485 2.117 2.323 3.176 5.551 3.176 9.683 0 2.796-.381 4.816-1.141 6.06-.761 1.243-2.097 2.379-4.009 3.407z"/></g></g><g fill="#00a19c" transform="matrix(3.31792765434 0 0 3.31792765434 -468.92954181 -381.512388543)"><path d="m412.825 156.524-4.86 42.083h-13.673c-1.247-6.463-2.348-13.811-3.301-22.042-.433 3.518-1.447 10.865-3.041 22.042h-13.595l-4.886-42.083h10.631l1.118 14.687 1.143 14.166c.399-7.33 1.404-16.948 3.016-28.853h11.385c.156 1.231.554 5.857 1.195 13.881l1.196 15.986c.607-10.172 1.62-20.128 3.041-29.867z"/><path d="m438.427 174.876h-10.943v-7.331c0-2.131-.117-3.461-.351-3.99-.234-.528-.75-.792-1.547-.792-.901 0-1.473.32-1.716.961-.242.642-.363 2.028-.363 4.159v19.547c0 2.045.121 3.379.363 4.003.243.624.789.936 1.638.936.814 0 1.347-.312 1.599-.936.251-.624.377-2.088.377-4.393v-5.276h10.943v1.637c0 4.35-.308 7.434-.923 9.254-.615 1.819-1.976 3.414-4.081 4.783s-4.7 2.053-7.785 2.053c-3.206 0-5.848-.58-7.928-1.741-2.079-1.161-3.457-2.769-4.133-4.822-.676-2.054-1.014-5.142-1.014-9.267v-12.295c0-3.032.104-5.306.312-6.823.208-1.516.828-2.976 1.859-4.38 1.031-1.403 2.461-2.508 4.289-3.314s3.929-1.208 6.303-1.208c3.223 0 5.883.623 7.98 1.871s3.474 2.803 4.133 4.666c.658 1.863.988 4.761.988 8.695z"/><path d="m440.218 156.524h7.746c5.164 0 8.66.2 10.488.598 1.829.399 3.319 1.417 4.471 3.054 1.153 1.638 1.729 4.25 1.729 7.837 0 3.275-.408 5.476-1.222 6.603-.814 1.126-2.417 1.802-4.809 2.027 2.166.537 3.622 1.256 4.367 2.158.745.901 1.209 1.728 1.391 2.482s.273 2.829.273 6.225v11.099h-10.164v-13.984c0-2.253-.177-3.648-.533-4.185-.355-.537-1.286-.806-2.794-.806v18.975h-10.943zm10.943 7.2v9.358c1.231 0 2.093-.169 2.587-.507.493-.338.74-1.434.74-3.288v-2.313c0-1.335-.238-2.21-.714-2.626-.477-.416-1.348-.624-2.613-.624z"/><path d="m466.755 156.524h11.021c2.981 0 5.272.234 6.875.702s2.808 1.144 3.613 2.028c.806.883 1.352 1.953 1.638 3.21.286 1.256.429 3.201.429 5.835v3.665c0 2.686-.277 4.644-.832 5.875-.554 1.23-1.572 2.175-3.054 2.833-1.482.659-3.418.988-5.81.988h-2.937v16.947h-10.943zm10.943 7.2v10.71c.312.017.581.026.806.026 1.005 0 1.703-.247 2.092-.741.39-.494.585-1.521.585-3.08v-3.457c0-1.439-.225-2.375-.676-2.808-.45-.433-1.386-.65-2.807-.65z"/></g></g></svg>